# xmcd
#
# Track frame offsets:
#	150
#	10371
#	28078
#	40676
#	54255
#	66052
#	82620
#	98008
#	112920
#	136994
#	150477
#	162975
#	183628
#	197944
#	213651
#
# Disc length: 3072 seconds
#
# Revision: 1
# Processed by: cddbd v1.5.2PL0 Copyright (c) Steve Scherf et al.
# Submitted via: audiograbber 1.83.01
#
DISCID=bd0bfe0f
DTITLE=Piter Wilkens - It fugeltsje in myn gitaar
DYEAR=2006
DGENRE=Folk
TTITLE0=IT FÛGELTSJE YN MYN GITAAR
TTITLE1=IENFÂLDICH TRÛBADOER
TTITLE2=SONJA EN SIEU
TTITLE3=PERSOANLIKE PITER 
TTITLE4=POMPERIPOSSA SAMBA
TTITLE5=BALLADE FAN ÂLD BAAS FREARK EN MOAIE CECILIA LIND
TTITLE6=LIWWARDER BLUES
TTITLE7=GUON RINNE OM OP STIKKENE SKUON
TTITLE8=BOATSMAN CHARLIE DONOVAN
TTITLE9=VERONICA
TTITLE10=MEI PAKE YN DUET
TTITLE11=DAAMSLIEPERS (AMSTERDAM 25-08-1970) 
TTITLE12=MANEUVELS FOAR DE MOARNTIID
TTITLE13=BALLADE FAN DE WAPENE BIDDELMAN
TTITLE14=SIMMERKAART 
EXTD=
EXTT0=
EXTT1=
EXTT2=
EXTT3=
EXTT4=
EXTT5=
EXTT6=
EXTT7=
EXTT8=
EXTT9=
EXTT10=
EXTT11=
EXTT12=
EXTT13=
EXTT14=
PLAYORDER=
